<mxfile host="Electron" agent="Mozilla/5.0 (Windows NT 10.0; Win64; x64) AppleWebKit/537.36 (KHTML, like Gecko) draw.io/27.0.2 Chrome/134.0.6998.205 Electron/35.3.0 Safari/537.36" version="27.0.2">
  <diagram name="Page-1" id="EAX-awUBmTX7wlH8oMkM">
    <mxGraphModel dx="1042" dy="626" grid="1" gridSize="10" guides="1" tooltips="1" connect="1" arrows="1" fold="1" page="1" pageScale="1" pageWidth="850" pageHeight="1100" math="0" shadow="0">
      <root>
        <mxCell id="0" />
        <mxCell id="1" parent="0" />
        <mxCell id="3AL4u7kh1hlVqpweyAnb-1" value="" style="rounded=0;whiteSpace=wrap;html=1;dashed=1;fillColor=default;strokeColor=light-dark(#808080,#008F00);" parent="1" vertex="1">
          <mxGeometry x="12.46" y="120" width="120" height="480" as="geometry" />
        </mxCell>
        <mxCell id="3AL4u7kh1hlVqpweyAnb-2" value="&lt;font style=&quot;font-size: 22px;&quot;&gt;Sources&lt;/font&gt;" style="rounded=0;whiteSpace=wrap;html=1;strokeColor=none;" parent="1" vertex="1">
          <mxGeometry x="12.46" y="100" width="120" height="30" as="geometry" />
        </mxCell>
        <mxCell id="3AL4u7kh1hlVqpweyAnb-3" value="" style="rounded=0;whiteSpace=wrap;html=1;dashed=1;fillColor=default;strokeColor=light-dark(#808080,#008F00);" parent="1" vertex="1">
          <mxGeometry x="160" y="120" width="540" height="480" as="geometry" />
        </mxCell>
        <mxCell id="3AL4u7kh1hlVqpweyAnb-4" value="&lt;font style=&quot;font-size: 22px;&quot;&gt;Data Warehouse&lt;/font&gt;" style="rounded=0;whiteSpace=wrap;html=1;strokeColor=none;" parent="1" vertex="1">
          <mxGeometry x="335" y="100" width="180" height="30" as="geometry" />
        </mxCell>
        <mxCell id="3AL4u7kh1hlVqpweyAnb-7" value="" style="rounded=0;whiteSpace=wrap;html=1;dashed=1;fillColor=default;strokeColor=light-dark(#808080,#008F00);" parent="1" vertex="1">
          <mxGeometry x="720" y="120" width="120" height="480" as="geometry" />
        </mxCell>
        <mxCell id="3AL4u7kh1hlVqpweyAnb-8" value="&lt;font style=&quot;font-size: 16px;&quot;&gt;&lt;b&gt;Bronze Layer&lt;/b&gt;&lt;/font&gt;" style="rounded=0;whiteSpace=wrap;html=1;strokeColor=#d79b00;fillColor=#ffe6cc;" parent="1" vertex="1">
          <mxGeometry x="220" y="130" width="120" height="30" as="geometry" />
        </mxCell>
        <mxCell id="3AL4u7kh1hlVqpweyAnb-9" value="" style="rounded=0;whiteSpace=wrap;html=1;strokeColor=#d79b00;fillColor=none;" parent="1" vertex="1">
          <mxGeometry x="170" y="170" width="160" height="420" as="geometry" />
        </mxCell>
        <mxCell id="3AL4u7kh1hlVqpweyAnb-10" value="&lt;font style=&quot;font-size: 16px;&quot;&gt;&lt;b&gt;Silver Layer&lt;/b&gt;&lt;/font&gt;" style="rounded=0;whiteSpace=wrap;html=1;strokeColor=#6c8ebf;fillColor=#dae8fc;" parent="1" vertex="1">
          <mxGeometry x="380" y="130" width="120" height="30" as="geometry" />
        </mxCell>
        <mxCell id="3AL4u7kh1hlVqpweyAnb-11" value="" style="rounded=0;whiteSpace=wrap;html=1;strokeColor=#6c8ebf;fillColor=none;" parent="1" vertex="1">
          <mxGeometry x="350" y="170" width="160" height="420" as="geometry" />
        </mxCell>
        <mxCell id="3AL4u7kh1hlVqpweyAnb-12" value="&lt;font style=&quot;font-size: 16px;&quot;&gt;&lt;b&gt;Silver Layer&lt;/b&gt;&lt;/font&gt;" style="rounded=0;whiteSpace=wrap;html=1;strokeColor=#82b366;fillColor=#d5e8d4;" parent="1" vertex="1">
          <mxGeometry x="540" y="130" width="120" height="30" as="geometry" />
        </mxCell>
        <mxCell id="3AL4u7kh1hlVqpweyAnb-13" value="" style="rounded=0;whiteSpace=wrap;html=1;strokeColor=#82b366;fillColor=none;" parent="1" vertex="1">
          <mxGeometry x="530" y="170" width="160" height="420" as="geometry" />
        </mxCell>
        <mxCell id="3AL4u7kh1hlVqpweyAnb-14" value="&lt;b&gt;CRM&lt;/b&gt;" style="image;aspect=fixed;html=1;points=[];align=center;fontSize=12;image=img/lib/azure2/general/Folder_Blank.svg;" parent="1" vertex="1">
          <mxGeometry x="32.46" y="200" width="49.29" height="40" as="geometry" />
        </mxCell>
        <mxCell id="3AL4u7kh1hlVqpweyAnb-15" value="" style="image;aspect=fixed;html=1;points=[];align=center;fontSize=12;image=img/lib/azure2/general/File.svg;" parent="1" vertex="1">
          <mxGeometry x="72.46000000000001" y="220" width="32.46" height="40" as="geometry" />
        </mxCell>
        <mxCell id="3AL4u7kh1hlVqpweyAnb-16" value="&lt;b&gt;ERP&lt;/b&gt;" style="image;aspect=fixed;html=1;points=[];align=center;fontSize=12;image=img/lib/azure2/general/Folder_Blank.svg;" parent="1" vertex="1">
          <mxGeometry x="32.46" y="360" width="49.29" height="40" as="geometry" />
        </mxCell>
        <mxCell id="3AL4u7kh1hlVqpweyAnb-17" value="" style="image;aspect=fixed;html=1;points=[];align=center;fontSize=12;image=img/lib/azure2/general/File.svg;" parent="1" vertex="1">
          <mxGeometry x="72.46000000000001" y="380" width="32.46" height="40" as="geometry" />
        </mxCell>
        <mxCell id="3AL4u7kh1hlVqpweyAnb-23" value="" style="shape=datastore;whiteSpace=wrap;html=1;fillColor=#ffe6cc;strokeColor=#d79b00;" parent="1" vertex="1">
          <mxGeometry x="212.5" y="200" width="60" height="60" as="geometry" />
        </mxCell>
        <mxCell id="3AL4u7kh1hlVqpweyAnb-24" value="" style="shape=datastore;whiteSpace=wrap;html=1;fillColor=#dae8fc;strokeColor=#6c8ebf;" parent="1" vertex="1">
          <mxGeometry x="400" y="200" width="60" height="60" as="geometry" />
        </mxCell>
        <mxCell id="3AL4u7kh1hlVqpweyAnb-25" value="" style="shape=datastore;whiteSpace=wrap;html=1;fillColor=#d5e8d4;strokeColor=#82b366;" parent="1" vertex="1">
          <mxGeometry x="580" y="200" width="60" height="60" as="geometry" />
        </mxCell>
        <mxCell id="3AL4u7kh1hlVqpweyAnb-28" value="&lt;font style=&quot;font-size: 14px;&quot;&gt;Raw Data&lt;/font&gt;" style="text;html=1;align=center;verticalAlign=middle;whiteSpace=wrap;rounded=0;fontStyle=1" parent="1" vertex="1">
          <mxGeometry x="202.5" y="280" width="80" height="30" as="geometry" />
        </mxCell>
        <mxCell id="3AL4u7kh1hlVqpweyAnb-29" value="&lt;font style=&quot;font-size: 14px;&quot;&gt;Cleaned, Standardized Data&lt;/font&gt;" style="text;html=1;align=center;verticalAlign=middle;whiteSpace=wrap;rounded=0;fontStyle=1" parent="1" vertex="1">
          <mxGeometry x="360" y="280" width="140" height="30" as="geometry" />
        </mxCell>
        <mxCell id="3AL4u7kh1hlVqpweyAnb-30" value="&lt;font style=&quot;font-size: 14px;&quot;&gt;Business-Ready Data&lt;/font&gt;" style="text;html=1;align=center;verticalAlign=middle;whiteSpace=wrap;rounded=0;fontStyle=1" parent="1" vertex="1">
          <mxGeometry x="540" y="280" width="140" height="30" as="geometry" />
        </mxCell>
        <mxCell id="3AL4u7kh1hlVqpweyAnb-35" value="" style="line;strokeWidth=2;html=1;fillColor=#ffe6cc;strokeColor=#d79b00;" parent="1" vertex="1">
          <mxGeometry x="180" y="316" width="130" height="10" as="geometry" />
        </mxCell>
        <mxCell id="3AL4u7kh1hlVqpweyAnb-36" value="" style="line;strokeWidth=2;html=1;fillColor=#dae8fc;strokeColor=#6c8ebf;" parent="1" vertex="1">
          <mxGeometry x="370" y="316" width="125" height="10" as="geometry" />
        </mxCell>
        <mxCell id="3AL4u7kh1hlVqpweyAnb-37" value="" style="line;strokeWidth=2;html=1;fillColor=#d5e8d4;strokeColor=#82b366;" parent="1" vertex="1">
          <mxGeometry x="547.5" y="316" width="122.5" height="10" as="geometry" />
        </mxCell>
        <mxCell id="3AL4u7kh1hlVqpweyAnb-38" value="&lt;font&gt;&lt;b style=&quot;&quot;&gt;Object Type&lt;/b&gt;: Tables&lt;/font&gt;&lt;div&gt;&lt;font&gt;&lt;b&gt;Load&lt;/b&gt;:&lt;br&gt;&lt;/font&gt;&lt;div&gt;&lt;ul&gt;&lt;li style=&quot;&quot;&gt;&lt;font&gt;&amp;nbsp;Batch Processing&lt;/font&gt;&lt;/li&gt;&lt;li style=&quot;&quot;&gt;&lt;font&gt;Full Load&lt;/font&gt;&lt;/li&gt;&lt;li style=&quot;&quot;&gt;&lt;font&gt;Truncate &amp;amp; Insert&lt;/font&gt;&lt;/li&gt;&lt;/ul&gt;&lt;/div&gt;&lt;div&gt;&lt;font&gt;&lt;span style=&quot;background-color: transparent; color: light-dark(rgb(0, 0, 0), rgb(255, 255, 255));&quot;&gt;No &lt;/span&gt;&lt;b style=&quot;background-color: transparent; color: light-dark(rgb(0, 0, 0), rgb(255, 255, 255));&quot;&gt;Transformation&lt;/b&gt;&lt;/font&gt;&lt;/div&gt;&lt;div&gt;&lt;font&gt;&lt;b style=&quot;background-color: transparent; color: light-dark(rgb(0, 0, 0), rgb(255, 255, 255));&quot;&gt;&lt;br&gt;&lt;/b&gt;&lt;/font&gt;&lt;/div&gt;&lt;div&gt;&lt;br&gt;&lt;/div&gt;&lt;div&gt;&lt;font&gt;&lt;b style=&quot;&quot;&gt;Data Model: &lt;/b&gt;None (as-is)&lt;/font&gt;&lt;/div&gt;&lt;/div&gt;" style="text;html=1;align=left;verticalAlign=middle;whiteSpace=wrap;rounded=0;" parent="1" vertex="1">
          <mxGeometry x="180" y="326" width="140" height="174" as="geometry" />
        </mxCell>
        <mxCell id="3AL4u7kh1hlVqpweyAnb-39" value="&lt;font&gt;&lt;b style=&quot;&quot;&gt;Object Type&lt;/b&gt;: Tables&lt;/font&gt;&lt;div&gt;&lt;b&gt;Load:&lt;/b&gt;&lt;br&gt;&lt;div&gt;&lt;ul&gt;&lt;li style=&quot;&quot;&gt;&lt;font&gt;Batch Processing&lt;/font&gt;&lt;/li&gt;&lt;li style=&quot;&quot;&gt;&lt;font&gt;Full Load&lt;/font&gt;&lt;/li&gt;&lt;li style=&quot;&quot;&gt;&lt;font&gt;Truncate &amp;amp; Insert&lt;/font&gt;&lt;/li&gt;&lt;/ul&gt;&lt;/div&gt;&lt;div&gt;&lt;b style=&quot;background-color: transparent; color: light-dark(rgb(0, 0, 0), rgb(255, 255, 255));&quot;&gt;&lt;font&gt;Transformation&lt;/font&gt;&lt;/b&gt;&lt;/div&gt;&lt;div&gt;&lt;ul&gt;&lt;li&gt;&lt;span style=&quot;background-color: transparent; color: light-dark(rgb(0, 0, 0), rgb(255, 255, 255));&quot;&gt;&lt;font style=&quot;&quot;&gt;Cleansing&lt;/font&gt;&lt;/span&gt;&lt;/li&gt;&lt;li&gt;&lt;font&gt;Standardization&lt;/font&gt;&lt;/li&gt;&lt;li&gt;&lt;font&gt;Normalization&lt;/font&gt;&lt;/li&gt;&lt;li&gt;&lt;font&gt;Drived Column&lt;/font&gt;&lt;/li&gt;&lt;li&gt;&lt;font&gt;Data Enrichment&lt;/font&gt;&lt;/li&gt;&lt;/ul&gt;&lt;/div&gt;&lt;div&gt;&lt;font&gt;&lt;b style=&quot;&quot;&gt;Data Model: &lt;/b&gt;None (as-is)&lt;/font&gt;&lt;/div&gt;&lt;/div&gt;" style="text;html=1;align=left;verticalAlign=middle;whiteSpace=wrap;rounded=0;" parent="1" vertex="1">
          <mxGeometry x="360" y="326" width="142.5" height="234" as="geometry" />
        </mxCell>
        <mxCell id="3AL4u7kh1hlVqpweyAnb-40" value="&lt;font&gt;&lt;b style=&quot;&quot;&gt;Object Type&lt;/b&gt;: Views&lt;/font&gt;&lt;div&gt;No &lt;b&gt;Load&lt;/b&gt;&lt;/div&gt;&lt;div&gt;&lt;b&gt;&lt;br&gt;&lt;/b&gt;&lt;/div&gt;&lt;div&gt;&lt;b&gt;&lt;br&gt;&lt;/b&gt;&lt;/div&gt;&lt;div&gt;&lt;br&gt;&lt;/div&gt;&lt;div&gt;&lt;b style=&quot;background-color: transparent; color: light-dark(rgb(0, 0, 0), rgb(255, 255, 255));&quot;&gt;Transformation:&lt;/b&gt;&lt;/div&gt;&lt;div&gt;&lt;div&gt;&lt;ul&gt;&lt;li&gt;&lt;font&gt;&lt;span style=&quot;background-color: transparent; color: light-dark(rgb(0, 0, 0), rgb(255, 255, 255));&quot;&gt;Data Integrations&lt;/span&gt;&lt;/font&gt;&lt;/li&gt;&lt;li&gt;&lt;font&gt;&lt;span style=&quot;background-color: transparent; color: light-dark(rgb(0, 0, 0), rgb(255, 255, 255));&quot;&gt;Aggregation&lt;/span&gt;&lt;/font&gt;&lt;/li&gt;&lt;li&gt;&lt;font&gt;&lt;span style=&quot;background-color: transparent; color: light-dark(rgb(0, 0, 0), rgb(255, 255, 255));&quot;&gt;Business Logics&lt;/span&gt;&lt;/font&gt;&lt;/li&gt;&lt;/ul&gt;&lt;div&gt;&lt;b&gt;Data Model:&lt;/b&gt;&lt;/div&gt;&lt;/div&gt;&lt;div&gt;&lt;ul&gt;&lt;li&gt;Star Schema&lt;/li&gt;&lt;li&gt;Flat Table&lt;/li&gt;&lt;li&gt;Aggerigated Table&lt;/li&gt;&lt;/ul&gt;&lt;/div&gt;&lt;div&gt;&lt;font&gt;&lt;b style=&quot;background-color: transparent; color: light-dark(rgb(0, 0, 0), rgb(255, 255, 255));&quot;&gt;&lt;br&gt;&lt;/b&gt;&lt;/font&gt;&lt;/div&gt;&lt;div&gt;&lt;br&gt;&lt;/div&gt;&lt;/div&gt;" style="text;html=1;align=left;verticalAlign=middle;whiteSpace=wrap;rounded=0;" parent="1" vertex="1">
          <mxGeometry x="536.25" y="340" width="147.5" height="244" as="geometry" />
        </mxCell>
        <mxCell id="3AL4u7kh1hlVqpweyAnb-41" value="&lt;b&gt;BI &amp;amp; Reporting&lt;/b&gt;" style="image;aspect=fixed;html=1;points=[];align=center;fontSize=12;image=img/lib/azure2/power_platform/PowerBI.svg;" parent="1" vertex="1">
          <mxGeometry x="762" y="180" width="36" height="48" as="geometry" />
        </mxCell>
        <mxCell id="3AL4u7kh1hlVqpweyAnb-43" value="Machine Learning" style="text;html=1;align=center;verticalAlign=middle;whiteSpace=wrap;rounded=0;fontStyle=1" parent="1" vertex="1">
          <mxGeometry x="750" y="490" width="68" height="30" as="geometry" />
        </mxCell>
        <mxCell id="3AL4u7kh1hlVqpweyAnb-44" value="&lt;b&gt;SQL Queries&lt;/b&gt;" style="sketch=0;html=1;aspect=fixed;strokeColor=none;shadow=0;fillColor=#3B8DF1;verticalAlign=top;labelPosition=center;verticalLabelPosition=bottom;shape=mxgraph.gcp2.big_query" parent="1" vertex="1">
          <mxGeometry x="753.35" y="293.5" width="54.45" height="55" as="geometry" />
        </mxCell>
        <mxCell id="3AL4u7kh1hlVqpweyAnb-45" value="" style="points=[];aspect=fixed;html=1;align=center;shadow=0;dashed=0;fillColor=#FF6A00;strokeColor=none;shape=mxgraph.alibaba_cloud.machine_learning;" parent="1" vertex="1">
          <mxGeometry x="755.67" y="439.9" width="49.8" height="50.099999999999994" as="geometry" />
        </mxCell>
        <mxCell id="3AL4u7kh1hlVqpweyAnb-46" value="" style="line;strokeWidth=2;html=1;fillColor=#dae8fc;strokeColor=#6c8ebf;" parent="1" vertex="1">
          <mxGeometry x="28.69" y="436" width="87.54" height="10" as="geometry" />
        </mxCell>
        <mxCell id="3AL4u7kh1hlVqpweyAnb-47" value="&lt;font&gt;&lt;b&gt;Object Type:&amp;nbsp;&lt;/b&gt;&lt;/font&gt;&lt;div&gt;&lt;font&gt;CSV Files&lt;/font&gt;&lt;div&gt;&lt;font&gt;&lt;br&gt;&lt;/font&gt;&lt;/div&gt;&lt;div&gt;&lt;font&gt;&lt;b&gt;Interface:&lt;/b&gt;&lt;/font&gt;&lt;/div&gt;&lt;div&gt;&lt;font&gt;File in Folders&lt;/font&gt;&lt;/div&gt;&lt;/div&gt;" style="text;html=1;align=left;verticalAlign=middle;whiteSpace=wrap;rounded=0;" parent="1" vertex="1">
          <mxGeometry x="23.69" y="460" width="97.54" height="90" as="geometry" />
        </mxCell>
        <mxCell id="3AL4u7kh1hlVqpweyAnb-48" value="&lt;font style=&quot;font-size: 22px;&quot;&gt;Comsume&lt;/font&gt;" style="rounded=0;whiteSpace=wrap;html=1;strokeColor=none;" parent="1" vertex="1">
          <mxGeometry x="720" y="100" width="120" height="30" as="geometry" />
        </mxCell>
        <mxCell id="3AL4u7kh1hlVqpweyAnb-49" value="" style="image;aspect=fixed;perimeter=ellipsePerimeter;html=1;align=center;shadow=0;dashed=0;spacingTop=3;image=img/lib/active_directory/sql_server.svg;" parent="1" vertex="1">
          <mxGeometry x="160" y="70" width="38.5" height="50" as="geometry" />
        </mxCell>
        <mxCell id="_PFhQ6Hr9i6lH014nYVm-2" value="" style="shape=singleArrow;whiteSpace=wrap;html=1;fillColor=#dae8fc;strokeColor=#6c8ebf;" vertex="1" parent="1">
          <mxGeometry x="120" y="293.5" width="50" height="56.5" as="geometry" />
        </mxCell>
        <mxCell id="_PFhQ6Hr9i6lH014nYVm-3" value="" style="shape=singleArrow;whiteSpace=wrap;html=1;fillColor=#dae8fc;strokeColor=#6c8ebf;" vertex="1" parent="1">
          <mxGeometry x="310" y="296" width="50" height="50" as="geometry" />
        </mxCell>
        <mxCell id="_PFhQ6Hr9i6lH014nYVm-4" value="" style="shape=singleArrow;whiteSpace=wrap;html=1;fillColor=#dae8fc;strokeColor=#6c8ebf;" vertex="1" parent="1">
          <mxGeometry x="495" y="296" width="50" height="50" as="geometry" />
        </mxCell>
        <mxCell id="_PFhQ6Hr9i6lH014nYVm-5" value="" style="shape=singleArrow;whiteSpace=wrap;html=1;fillColor=#dae8fc;strokeColor=#6c8ebf;" vertex="1" parent="1">
          <mxGeometry x="680" y="296.75" width="50" height="50" as="geometry" />
        </mxCell>
      </root>
    </mxGraphModel>
  </diagram>
</mxfile>
